<svg width="80" height="22" viewBox="0 0 80 22" fill="none" xmlns="http://www.w3.org/2000/svg">
<path d="M68.6818 21H66.2178V0.84H68.6818V7.98C69.6618 6.58 71.0898 5.768 72.8538 5.768C76.8018 5.768 79.1818 8.68 79.1818 13.524C79.1818 18.564 76.7458 21.336 72.8538 21.336C71.0898 21.336 69.6618 20.608 68.6818 19.236V21ZM72.6858 7.896C70.0818 7.896 68.6818 9.884 68.6818 13.524C68.6818 17.136 70.1378 19.208 72.6858 19.208C75.2618 19.208 76.6618 17.192 76.6618 13.524C76.6618 9.94 75.2058 7.896 72.6858 7.896Z" fill="black"/>
<path d="M63.0465 16.156C62.2345 19.628 59.7425 21.336 56.3545 21.336C52.0425 21.336 49.4385 18.424 49.4385 13.58C49.4385 8.54 52.0425 5.768 56.2145 5.768C60.4145 5.768 62.9345 8.652 62.9345 13.384V14H51.9585C52.0985 17.332 53.6665 19.208 56.3545 19.208C58.4545 19.208 59.9385 18.2 60.4705 16.156H63.0465ZM56.2145 7.896C53.8345 7.896 52.4065 9.38 52.0425 12.152H60.3585C60.0225 9.408 58.5385 7.896 56.2145 7.896Z" fill="black"/>
<path d="M37.604 9.94C37.604 14.084 47.264 10.668 47.264 16.8C47.264 19.572 44.8 21.336 41.3 21.336C37.772 21.336 35.308 19.656 34.748 16.156H37.212C37.548 18.228 39.088 19.376 41.384 19.376C43.624 19.376 44.8 18.368 44.8 16.968C44.8 12.908 35.252 16.268 35.252 10.108C35.252 7.84 37.016 5.768 40.656 5.768C43.876 5.768 46.256 7.28 46.732 10.976H44.268C43.904 8.652 42.616 7.784 40.516 7.784C38.668 7.784 37.604 8.708 37.604 9.94Z" fill="black"/>
<path d="M22.029 10.976H19.565C20.041 7.7 22.197 5.768 25.837 5.768C29.813 5.768 31.745 8.092 31.745 11.564V17.416C31.745 19.124 31.885 20.188 32.277 21H29.673C29.393 20.412 29.309 19.544 29.281 18.648C28.021 20.524 26.005 21.336 24.213 21.336C21.133 21.336 19.061 19.908 19.061 17.08C19.061 15.036 20.181 13.552 22.365 12.824C24.381 12.152 26.425 11.984 29.281 11.956V11.62C29.281 9.212 28.161 7.896 25.613 7.896C23.485 7.896 22.337 9.072 22.029 10.976ZM21.581 17.024C21.581 18.396 22.729 19.208 24.465 19.208C27.209 19.208 29.281 17.052 29.281 14.504V13.804C22.953 13.86 21.581 15.204 21.581 17.024Z" fill="black"/>
<path d="M3.24806 1.96L9.04406 16.828L9.60406 18.508L10.1641 16.828L15.9601 1.96H18.5081L11.0321 21H8.06406L0.560059 1.96H3.24806Z" fill="black"/>
</svg>
